<svg width="35" height="33" viewBox="0 0 35 33" fill="none" xmlns="http://www.w3.org/2000/svg">
<path d="M35 3.10716V24.5357C35 25.2461 34.7163 25.9274 34.2114 26.4298C33.7065 26.9321 33.0217 27.2143 32.3077 27.2143H9.84378L4.44571 31.9202C4.43921 31.9272 4.43187 31.9334 4.42384 31.9386C3.9404 32.3472 3.32669 32.5715 2.69235 32.5714C2.29738 32.5708 1.90737 32.4839 1.5498 32.317C1.08472 32.1037 0.69122 31.7617 0.416382 31.3318C0.141544 30.9019 -0.00299702 30.4024 4.71106e-05 29.8929V3.10716C4.71106e-05 2.39676 0.2837 1.71545 0.788605 1.21312C1.29351 0.710795 1.97831 0.428589 2.69235 0.428589H32.3077C33.0217 0.428589 33.7065 0.710795 34.2114 1.21312C34.7163 1.71545 35 2.39676 35 3.10716Z" fill="#00284C" fill-opacity="0.5"/>
</svg>
