<svg width="35" height="35" viewBox="0 0 35 35" fill="none" xmlns="http://www.w3.org/2000/svg">
<path fill-rule="evenodd" clip-rule="evenodd" d="M9.72222 7.77778C9.72222 5.71498 10.5417 3.73667 12.0003 2.27806C13.4589 0.819442 15.4372 0 17.5 0C19.5628 0 21.5411 0.819442 22.9997 2.27806C24.4583 3.73667 25.2778 5.71498 25.2778 7.77778C25.2778 9.84057 24.4583 11.8189 22.9997 13.2775C21.5411 14.7361 19.5628 15.5556 17.5 15.5556C15.4372 15.5556 13.4589 14.7361 12.0003 13.2775C10.5417 11.8189 9.72222 9.84057 9.72222 7.77778ZM9.72222 19.4444C7.14373 19.4444 4.67084 20.4687 2.84757 22.292C1.0243 24.1153 0 26.5882 0 29.1667C0 30.7138 0.614582 32.1975 1.70854 33.2915C2.80251 34.3854 4.28624 35 5.83333 35H29.1667C30.7138 35 32.1975 34.3854 33.2915 33.2915C34.3854 32.1975 35 30.7138 35 29.1667C35 26.5882 33.9757 24.1153 32.1524 22.292C30.3292 20.4687 27.8563 19.4444 25.2778 19.4444H9.72222Z" fill="#00284C" fill-opacity="0.5"/>
</svg>
